<?xml version="1.0" encoding="UTF-8" standalone="no"?>
<svg width="128px" height="128px" viewBox="0 0 128 128" version="1.1" xmlns="http://www.w3.org/2000/svg" xmlns:xlink="http://www.w3.org/1999/xlink">
    <!-- Generator: Sketch 47 (45396) - http://www.bohemiancoding.com/sketch -->
    <title>Artboard 2</title>
    <desc>Created with Sketch.</desc>
    <defs></defs>
    <g id="Page-1" stroke="none" stroke-width="1" fill="none" fill-rule="evenodd">
        <g id="Artboard-2" fill-rule="nonzero" fill="#FFFFFF">
            <g id="heart" transform="translate(16.000000, 21.000000)">
                <path d="M89.1650522,7.98408488 C84.0857763,2.86182783 77.3613909,0.0622136484 70.1846003,0.0622136484 C63.0078097,0.0622136484 56.2628604,2.88256571 51.1835846,8.00482276 L48.5308454,10.6800096 L45.8369784,7.963347 C40.7577026,2.84108994 33.9921894,0 26.8153989,0 C19.6591722,0 12.9142229,2.82035206 7.85551088,7.92187123 C2.77623503,13.0441283 -0.0204512679,19.8461538 0.000112601934,27.0836749 C0.000112601934,34.321196 2.81736277,41.1024837 7.89663862,46.2247408 L46.5155861,85.1704847 C47.0502468,85.7096696 47.7699822,86 48.4691538,86 C49.1683254,86 49.8880608,85.7304075 50.4227214,85.1912226 L89.1239244,46.3076923 C94.2032003,41.1854353 96.9998866,34.3834097 96.9998866,27.1458886 C97.0204504,19.9083675 94.244328,13.1063419 89.1650522,7.98408488 Z M85.2167892,42.3467567 L48.4691538,79.2601881 L11.8037739,42.284543 C7.7732554,38.219918 5.55235745,32.8280685 5.55235745,27.0836749 C5.55235745,21.3392814 7.75269153,15.9474319 11.78321,11.9035447 C15.7931646,7.85965758 21.1397708,5.61996624 26.8153989,5.61996624 C32.5115908,5.61996624 37.8787608,7.85965758 41.9092793,11.9242826 L46.5567139,16.6110441 C47.646599,17.7101519 49.3945279,17.7101519 50.484413,16.6110441 L55.0907199,11.9657584 C59.1212384,7.90113335 64.4884084,5.66144201 70.1640364,5.66144201 C75.8396645,5.66144201 81.1862707,7.90113335 85.2167892,11.9450205 C89.2473076,16.0096455 91.4476417,21.4014951 91.4476417,27.1458886 C91.4682056,32.8902821 89.2473076,38.2821317 85.2167892,42.3467567 Z" id="Shape"></path>
            </g>
        </g>
    </g>
</svg>