<?xml version="1.0" encoding="UTF-8" standalone="no"?>
<svg width="128px" height="128px" viewBox="0 0 128 128" version="1.1" xmlns="http://www.w3.org/2000/svg" xmlns:xlink="http://www.w3.org/1999/xlink">
    <!-- Generator: Sketch 46.2 (44496) - http://www.bohemiancoding.com/sketch -->
    <title>Artboard</title>
    <desc>Created with Sketch.</desc>
    <defs></defs>
    <g id="Page-1" stroke="none" stroke-width="1" fill="none" fill-rule="evenodd">
        <g id="Artboard" fill="#FFFFFF">
            <g id="N-Highschool-border" transform="translate(31.000000, 25.000000)">
                <polygon id="Rectangle" points="0 40.0947369 5.04081635 55 13 31"></polygon>
                <polygon id="Rectangle-Copy-2" points="19 78 37 78 22.483871 36"></polygon>
                <polygon id="Rectangle-Copy-3" points="36.6513762 69 54 69 23 28"></polygon>
                <polygon id="Rectangle-Copy-4" transform="translate(29.500000, 26.000000) rotate(-180.000000) translate(-29.500000, -26.000000) " points="30.9090908 52 45 42.0425531 14 0"></polygon>
                <polygon id="Rectangle-Copy-5" transform="translate(43.000000, 33.500000) rotate(-180.000000) translate(-43.000000, -33.500000) " points="37.885246 48.8288771 51 58 35 9"></polygon>
                <polygon id="Rectangle-Copy-6" transform="translate(59.000000, 42.500000) rotate(-180.000000) translate(-59.000000, -42.500000) " points="52 53.0197369 66 63 62.8571428 22"></polygon>
                <polygon id="Rectangle-Copy" points="10 54.1721854 14.2903226 68 17 32"></polygon>
            </g>
        </g>
    </g>
</svg>