<?xml version="1.0" encoding="UTF-8" standalone="no"?>
<svg width="128px" height="128px" viewBox="0 0 128 128" version="1.1" xmlns="http://www.w3.org/2000/svg" xmlns:xlink="http://www.w3.org/1999/xlink">
    <!-- Generator: Sketch 46.2 (44496) - http://www.bohemiancoding.com/sketch -->
    <title>Artboard</title>
    <desc>Created with Sketch.</desc>
    <defs></defs>
    <g id="Page-1" stroke="none" stroke-width="1" fill="none" fill-rule="evenodd">
        <g id="Artboard" fill="#FFFFFF">
            <g id="N-Highschool-border" transform="translate(23.000000, 15.000000)">
                <polygon id="Rectangle" points="0 50.7473685 6.20408166 70 16 39"></polygon>
                <polygon id="Rectangle-Copy-2" points="23 99 45 99 27.2580645 46"></polygon>
                <polygon id="Rectangle-Copy-3" points="44.733945 88 66 88 28 36"></polygon>
                <polygon id="Rectangle-Copy-4" transform="translate(36.000000, 33.000000) rotate(-180.000000) translate(-36.000000, -33.000000) " points="37.7272726 66 55 53.361702 17 0"></polygon>
                <polygon id="Rectangle-Copy-5" transform="translate(54.000000, 42.000000) rotate(-180.000000) translate(-54.000000, -42.000000) " points="47.6065575 61.3957221 64 73 44 11"></polygon>
                <polygon id="Rectangle-Copy-6" transform="translate(73.500000, 54.000000) rotate(-180.000000) translate(-73.500000, -54.000000) " points="65 67.3421054 82 80 78.1836734 28"></polygon>
                <polygon id="Rectangle-Copy" points="13 69.3311258 18.516129 87 22 41"></polygon>
            </g>
        </g>
    </g>
</svg>