<?xml version="1.0" encoding="UTF-8" standalone="no"?>
<svg width="212px" height="54px" viewBox="0 0 212 54" version="1.1" xmlns="http://www.w3.org/2000/svg" xmlns:xlink="http://www.w3.org/1999/xlink">
    <!-- Generator: Sketch 47 (45396) - http://www.bohemiancoding.com/sketch -->
    <title>Artboard 3</title>
    <desc>Created with Sketch.</desc>
    <defs></defs>
    <g id="Page-1" stroke="none" stroke-width="1" fill="none" fill-rule="evenodd">
        <g id="Artboard-3">
            <g id="N-Highschool" transform="translate(3.000000, 7.000000)" fill-rule="nonzero" fill="#000066">
                <polygon id="Rectangle" points="0 20.3052632 8 15 3.10204082 29"></polygon>
                <polygon id="Rectangle-Copy-2" points="9 40 10.7419355 17 18 40"></polygon>
                <polygon id="Rectangle-Copy-3" points="18.4862385 36 11 13 28 36"></polygon>
                <polygon id="Rectangle-Copy-4" transform="translate(15.500000, 14.000000) rotate(-180.000000) translate(-15.500000, -14.000000) " points="16.2727273 28 7 0 24 22.6382979"></polygon>
                <polygon id="Rectangle-Copy-5" transform="translate(21.500000, 18.000000) rotate(-180.000000) translate(-21.500000, -18.000000) " points="18.6229508 26.7593583 17 4 26 32"></polygon>
                <polygon id="Rectangle-Copy-6" transform="translate(29.000000, 22.500000) rotate(-180.000000) translate(-29.000000, -22.500000) " points="25 28.4013158 31.2040816 11 33 34"></polygon>
                <polygon id="Rectangle-Copy" points="5 28.1655629 10 14 8.06451613 37"></polygon>
            </g>
            <path d="M44.529286,19.03 C44.4492856,19.1300005 44.4142859,19.3249986 44.424286,19.615 C44.434286,19.9050015 44.4642857,20.2149984 44.514286,20.545 C44.5642862,20.8750016 44.6142857,21.1949984 44.664286,21.505 C44.7142862,21.8150016 44.739286,22.0499992 44.739286,22.21 L44.739286,36.85 C44.739286,36.9500005 44.7792856,37.0299997 44.859286,37.09 C44.9392864,37.1500003 45.0192856,37.1899999 45.099286,37.21 C45.1992865,37.2500002 45.2942855,37.265 45.384286,37.255 C45.4742864,37.2449999 45.5692855,37.2499999 45.669286,37.27 C45.7892866,37.2900001 46.0042844,37.3149998 46.314286,37.345 C46.6242875,37.3750001 46.9492843,37.4149997 47.289286,37.465 C47.6292877,37.5150002 47.9392846,37.5649997 48.219286,37.615 C48.4992874,37.6650002 48.6792856,37.7099998 48.759286,37.75 C48.8592865,37.8100003 48.9242858,37.8999994 48.954286,38.02 C48.9842861,38.1400006 48.9092869,38.2 48.729286,38.2 L41.259286,38.2 C41.0392849,38.2 40.9592857,38.1100009 41.019286,37.93 C41.0592862,37.729999 41.179285,37.5900004 41.379286,37.51 C41.579287,37.4299996 41.7992848,37.3750001 42.039286,37.345 C42.2792872,37.3149998 42.5242847,37.3 42.774286,37.3 C43.0242872,37.3 43.2192853,37.2800002 43.359286,37.24 C43.5392869,37.2199999 43.629286,37.1200009 43.629286,36.94 C43.629286,35.2199914 43.6592857,33.4900087 43.719286,31.75 C43.7392861,31.349998 43.7592859,30.9400021 43.779286,30.52 C43.7992861,30.0999979 43.809286,29.690002 43.809286,29.29 L43.809286,23.23 C43.809286,22.6699972 43.8142859,22.1150027 43.824286,21.565 C43.834286,21.0149973 43.839286,20.4600028 43.839286,19.9 C43.839286,19.6599988 43.8492859,19.4100013 43.869286,19.15 C43.8892861,18.8899987 43.8792862,18.6400012 43.839286,18.4 C43.8192859,18.1399987 43.7492866,17.9300008 43.629286,17.77 C43.5092854,17.6099992 43.3642868,17.4850005 43.194286,17.395 C43.0242851,17.3049996 42.834287,17.2300003 42.624286,17.17 C42.4142849,17.1099997 42.209287,17.0600002 42.009286,17.02 C41.9692858,16.9999999 41.8692868,16.9750001 41.709286,16.945 C41.5492852,16.9149999 41.4492862,16.8900001 41.409286,16.87 C41.3092855,16.8099997 41.2492861,16.7200006 41.229286,16.6 C41.2092859,16.4799994 41.2792852,16.42 41.439286,16.42 L47.919286,16.42 C47.9992864,16.42 48.0942854,16.4699995 48.204286,16.57 C48.3142865,16.6700005 48.4192855,16.7899993 48.519286,16.93 C48.6192865,17.0700007 48.7192855,17.2049993 48.819286,17.335 C48.9192865,17.4650007 48.9892858,17.5599997 49.029286,17.62 C50.5092934,19.6600102 51.9842786,21.6849899 53.454286,23.695 C54.9242933,25.70501 56.3792788,27.7399897 57.819286,29.8 C57.9992869,30.0800014 58.1442854,30.3649985 58.254286,30.655 C58.3642865,30.9450014 58.4992852,31.2299986 58.659286,31.51 C58.7392864,31.6500007 58.8842849,31.8049992 59.094286,31.975 C59.304287,32.1450008 59.5192849,32.3149991 59.739286,32.485 C59.9592871,32.6550008 60.1492852,32.8299991 60.309286,33.01 C60.4692868,33.1900009 60.549286,33.3699991 60.549286,33.55 L60.429286,38.11 C60.429286,38.2300006 60.4042862,38.3049998 60.354286,38.335 C60.3042857,38.3650002 60.2292865,38.38 60.129286,38.38 C60.0692857,38.38 59.9442869,38.375 59.754286,38.365 C59.564285,38.3549999 59.3592871,38.3400001 59.139286,38.32 C58.9192849,38.2999999 58.7192869,38.2800001 58.539286,38.26 C58.3592851,38.2399999 58.2592861,38.2200001 58.239286,38.2 C58.0992853,38.1399997 57.9992863,38.0600005 57.939286,37.96 C57.8792857,37.8599995 57.7992865,37.7500006 57.699286,37.63 C56.0592778,35.3299885 54.439294,33.0350114 52.839286,30.745 C51.239278,28.4549885 49.6292941,26.1500116 48.009286,23.83 C47.6692843,23.3299975 47.3342876,22.8350025 47.004286,22.345 C46.6742843,21.8549976 46.3392877,21.3600025 45.999286,20.86 C45.8392852,20.6199988 45.6892867,20.3750013 45.549286,20.125 C45.4092853,19.8749987 45.239287,19.6400011 45.039286,19.42 C44.9792857,19.3399996 44.9092864,19.2600004 44.829286,19.18 C44.7492856,19.0999996 44.6592865,19.0500001 44.559286,19.03 L44.529286,19.03 Z M60.549286,31.27 C60.5892862,31.3900006 60.5742863,31.4849996 60.504286,31.555 C60.4342856,31.6250003 60.3542864,31.66 60.264286,31.66 C60.1742855,31.66 60.0842864,31.6200004 59.994286,31.54 C59.9042855,31.4599996 59.8692859,31.3400008 59.889286,31.18 C59.889286,30.9999991 59.8792861,30.8600005 59.859286,30.76 C59.8192858,30.4999987 59.8092859,30.2400013 59.829286,29.98 C59.8492861,29.7199987 59.8492861,29.4600013 59.829286,29.2 C59.7892858,27.8599933 59.764286,26.5300066 59.754286,25.21 C59.7442859,23.8899934 59.7192862,22.5600067 59.679286,21.22 C59.679286,21.019999 59.6692861,20.820001 59.649286,20.62 C59.6292859,20.419999 59.619286,20.220001 59.619286,20.02 C59.619286,19.619998 59.6292859,19.220002 59.649286,18.82 C59.6692861,18.419998 59.6592862,18.020002 59.619286,17.62 C59.5992859,17.4999994 59.4342875,17.4000004 59.124286,17.32 C58.8142844,17.2399996 58.4642879,17.1750003 58.074286,17.125 C57.684284,17.0749997 57.3092878,17.0400001 56.949286,17.02 C56.5892842,16.9999999 56.3492866,16.99 56.229286,16.99 C56.1892858,16.99 56.0792869,16.9800001 55.899286,16.96 C55.7192851,16.9399999 55.629286,16.8900004 55.629286,16.81 L55.629286,16.54 C55.629286,16.4599996 55.6992853,16.42 55.839286,16.42 L63.309286,16.42 C63.4892869,16.42 63.5692861,16.5099991 63.549286,16.69 C63.5092858,16.8500008 63.3492874,16.9499998 63.069286,16.99 C62.7892846,17.0300002 62.4792877,17.05 62.139286,17.05 C61.7992843,17.05 61.4942873,17.0699998 61.224286,17.11 C60.9542846,17.1500002 60.819286,17.2499992 60.819286,17.41 L60.549286,31.27 Z M66.189286,16.9 L66.309286,16.81 L77.289286,16.81 C77.4492868,16.81 77.5542857,16.715001 77.604286,16.525 C77.6542862,16.3349991 77.674286,16.1000014 77.664286,15.82 C77.6542859,15.5399986 77.6292862,15.2350017 77.589286,14.905 C77.5492858,14.5749983 77.524286,14.2700014 77.514286,13.99 C77.5042859,13.7099986 77.5242857,13.4750009 77.574286,13.285 C77.6242862,13.0949991 77.7292852,13 77.889286,13 C78.1492873,13 78.4692841,13.0099999 78.849286,13.03 C79.2292879,13.0500001 79.619284,13.0749999 80.019286,13.105 C80.419288,13.1350001 80.8042841,13.1749998 81.174286,13.225 C81.5442878,13.2750003 81.8492848,13.3399996 82.089286,13.42 C82.2692869,13.4800003 82.3442861,13.5349998 82.314286,13.585 C82.2842858,13.6350003 82.2192865,13.6949996 82.119286,13.765 C82.0192855,13.8350004 81.9092866,13.9149996 81.789286,14.005 C81.6692854,14.0950005 81.609286,14.1999994 81.609286,14.32 L81.609286,16.54 L81.699286,16.72 L81.909286,16.81 C82.0892869,16.81 82.4392834,16.8050001 82.959286,16.795 C83.4792886,16.785 84.0292831,16.7700001 84.609286,16.75 C85.1892889,16.7299999 85.7192836,16.7000002 86.199286,16.66 C86.6792884,16.6199998 86.9592856,16.5800002 87.039286,16.54 C87.1792867,16.4599996 87.3692848,16.2750015 87.609286,15.985 C87.8492872,15.6949985 88.0892848,15.3950015 88.329286,15.085 C88.5692872,14.7749985 88.789285,14.4950013 88.989286,14.245 C89.189287,13.9949988 89.3292856,13.87 89.409286,13.87 C89.5092865,13.87 89.7642839,14.0249985 90.174286,14.335 C90.584288,14.6450015 91.0142837,14.9849982 91.464286,15.355 C91.9142882,15.7250019 92.3192842,16.0749984 92.679286,16.405 C93.0392878,16.7350017 93.219286,16.9199998 93.219286,16.96 C93.219286,17.0600005 93.1792864,17.11 93.099286,17.11 L85.509286,17.11 C85.4092855,17.11 85.3292863,17.1599995 85.269286,17.26 C85.2092857,17.3600005 85.1192866,17.41 84.999286,17.41 C84.8792854,17.41 84.7642865,17.3750003 84.654286,17.305 C84.5442854,17.2349997 84.4292866,17.2 84.309286,17.2 C82.3692763,17.2 80.4392956,17.205 78.519286,17.215 C76.5992764,17.2250001 74.6692957,17.23 72.729286,17.23 C71.6492806,17.23 70.5792913,17.1950004 69.519286,17.125 C68.4592807,17.0549997 67.3892914,17.02 66.309286,17.02 L66.189286,16.9 Z M84.969286,17.92 C85.1092867,18.0200005 85.3442843,18.1799989 85.674286,18.4 C86.0042876,18.6200011 86.3492842,18.8599987 86.709286,19.12 C87.0692878,19.3800013 87.3992845,19.6199989 87.699286,19.84 C87.9992875,20.0600011 88.1892856,20.2199995 88.269286,20.32 C88.3292863,20.3800003 88.359286,20.4599995 88.359286,20.56 C88.359286,20.6600005 88.3192864,20.7349997 88.239286,20.785 C88.1592856,20.8350002 88.0692865,20.8849998 87.969286,20.935 C87.8692855,20.9850003 87.7742864,21.0249998 87.684286,21.055 C87.5942855,21.0850001 87.5392861,21.1199998 87.519286,21.16 C87.4992859,21.2000002 87.489286,21.419998 87.489286,21.82 L87.489286,25.42 C87.489286,25.5800008 87.3242876,25.7199994 86.994286,25.84 C86.6642843,25.9600006 86.2892881,26.0599996 85.869286,26.14 C85.4492839,26.2200004 85.0442879,26.2849997 84.654286,26.335 C84.264284,26.3850002 83.9992867,26.41 83.859286,26.41 C83.6792851,26.41 83.584286,26.3350007 83.574286,26.185 C83.5642859,26.0349992 83.5692859,25.8750008 83.589286,25.705 C83.6092861,25.5349992 83.614286,25.3750007 83.604286,25.225 C83.5942859,25.0749992 83.5192867,25 83.379286,25 L76.329286,25 C76.3092859,25 76.2042869,25.0849991 76.014286,25.255 C75.824285,25.4250008 75.5692876,25.6149989 75.249286,25.825 C74.9292844,26.035001 74.5592881,26.2249991 74.139286,26.395 C73.7192839,26.5650008 73.2692884,26.65 72.789286,26.65 C72.6692854,26.65 72.504287,26.645 72.294286,26.635 C72.0842849,26.6249999 71.979286,26.520001 71.979286,26.32 C71.979286,24.9999934 71.9442863,23.6900065 71.874286,22.39 C71.8042856,21.0899935 71.769286,19.7800066 71.769286,18.46 C71.769286,18.3999997 71.7842858,18.3400003 71.814286,18.28 C71.8442861,18.2199997 71.8992856,18.19 71.979286,18.19 C72.1392868,18.19 72.3242849,18.2299996 72.534286,18.31 C72.744287,18.3900004 72.9592849,18.4899994 73.179286,18.61 C73.3992871,18.7300006 73.6142849,18.8449994 73.824286,18.955 C74.034287,19.0650006 74.2192852,19.1499997 74.379286,19.21 L75.909286,19.78 C75.9892864,19.8200002 76.3542827,19.84 77.004286,19.84 L79.179286,19.84 C79.97929,19.84 80.7392824,19.835 81.459286,19.825 C82.1792896,19.8149999 82.6492849,19.81 82.869286,19.81 C82.9692865,19.81 83.114285,19.715001 83.304286,19.525 C83.4942869,19.3349991 83.6942849,19.1250012 83.904286,18.895 C84.114287,18.6649988 84.314285,18.450001 84.504286,18.25 C84.6942869,18.049999 84.8492854,17.9400001 84.969286,17.92 Z M75.789286,24.31 C75.789286,24.510001 75.889285,24.61 76.089286,24.61 L83.289286,24.61 C83.489287,24.61 83.589286,24.510001 83.589286,24.31 L83.589286,20.5 C83.589286,20.299999 83.489287,20.2 83.289286,20.2 L76.089286,20.2 C75.889285,20.2 75.789286,20.299999 75.789286,20.5 L75.789286,24.31 Z M67.299286,40.93 L67.269286,40.9 L67.179286,40.69 L67.179286,26.47 C67.179286,26.2899991 67.279285,26.2 67.479286,26.2 C67.7392873,26.2 68.0542841,26.2849991 68.424286,26.455 C68.7942878,26.6250008 69.1642841,26.809999 69.534286,27.01 C69.9042878,27.210001 70.2592843,27.3949991 70.599286,27.565 C70.9392877,27.7350008 71.2192849,27.82 71.439286,27.82 L87.969286,27.82 C88.0692865,27.82 88.1892853,27.7350008 88.329286,27.565 C88.4692867,27.3949991 88.6192852,27.2000011 88.779286,26.98 C88.9392868,26.7599989 89.0992852,26.5550009 89.259286,26.365 C89.4192868,26.174999 89.5692853,26.0600002 89.709286,26.02 C89.7892864,25.9999999 90.0142841,26.0999989 90.384286,26.32 C90.7542878,26.5400011 91.134284,26.8049984 91.524286,27.115 C91.9142879,27.4250015 92.2692844,27.7249985 92.589286,28.015 C92.9092876,28.3050014 93.069286,28.4999995 93.069286,28.6 C93.069286,28.6800004 93.0292864,28.7599996 92.949286,28.84 C92.8692856,28.9200004 92.7792865,28.9949996 92.679286,29.065 C92.5792855,29.1350003 92.4892864,29.2099996 92.409286,29.29 C92.3292856,29.3700004 92.289286,29.4499996 92.289286,29.53 L92.289286,38.41 C92.289286,38.8500022 92.1242876,39.2399983 91.794286,39.58 C91.4642843,39.9200017 91.0692883,40.2099988 90.609286,40.45 C90.1492837,40.6900012 89.6642885,40.8749993 89.154286,41.005 C88.6442834,41.1350006 88.2092878,41.2 87.849286,41.2 C87.7492855,41.2 87.6692863,41.1400006 87.609286,41.02 C87.5492857,40.8999994 87.5042861,40.7650007 87.474286,40.615 C87.4442858,40.4649992 87.424286,40.3150007 87.414286,40.165 C87.4042859,40.0149992 87.3892861,39.9000004 87.369286,39.82 C87.3492859,39.6999994 87.2792866,39.5150012 87.159286,39.265 C87.0392854,39.0149987 86.9092867,38.7600013 86.769286,38.5 C86.6292853,38.2399987 86.5042865,38.010001 86.394286,37.81 L86.229286,37.51 C86.229286,37.3899994 86.2992853,37.3200001 86.439286,37.3 C86.5792867,37.2799999 86.744285,37.2749999 86.934286,37.285 C87.1242869,37.295 87.3092851,37.3 87.489286,37.3 C87.6692869,37.3 87.7992856,37.2700003 87.879286,37.21 C87.8992861,37.1899999 87.9392857,37.1400004 87.999286,37.06 C88.0592863,36.9799996 88.1192857,36.8950004 88.179286,36.805 C88.2392863,36.7149995 88.2892858,36.6300004 88.329286,36.55 C88.3692862,36.4699996 88.389286,36.4200001 88.389286,36.4 L88.389286,28.72 C88.389286,28.519999 88.289287,28.42 88.089286,28.42 L71.289286,28.42 C71.089285,28.42 70.989286,28.519999 70.989286,28.72 L70.989286,39.82 C70.989286,40.0800013 70.8442874,40.2899992 70.554286,40.45 C70.2642845,40.6100008 69.9242879,40.7299996 69.534286,40.81 C69.144284,40.8900004 68.7542879,40.9449998 68.364286,40.975 C67.974284,41.0050002 67.6892869,41.02 67.509286,41.02 L67.299286,40.93 Z M81.669286,31.12 C81.7292863,31.0599997 81.8342852,30.9500008 81.984286,30.79 C82.1342867,30.6299992 82.2992851,30.4600009 82.479286,30.28 C82.6592869,30.0999991 82.8242852,29.9450007 82.974286,29.815 C83.1242867,29.6849994 83.2292857,29.62 83.289286,29.62 C83.3092861,29.62 83.4692845,29.724999 83.769286,29.935 C84.0692875,30.1450011 84.3892843,30.3799987 84.729286,30.64 C85.0692877,30.9000013 85.3842845,31.1449989 85.674286,31.375 C85.9642874,31.6050011 86.1292858,31.7499997 86.169286,31.81 L86.199286,31.87 C86.199286,32.0500009 86.1042869,32.1999994 85.914286,32.32 C85.724285,32.4400006 85.6092862,32.599999 85.569286,32.8 C85.5292858,32.9800009 85.5142859,33.1649991 85.524286,33.355 C85.534286,33.545001 85.539286,33.7299991 85.539286,33.91 C85.539286,34.2300016 85.5292861,34.5449985 85.509286,34.855 C85.4892859,35.1650015 85.4592862,35.4799984 85.419286,35.8 C85.3992859,35.9400007 85.3942859,36.0749993 85.404286,36.205 C85.414286,36.3350006 85.4092861,36.4699993 85.389286,36.61 C85.3492858,36.9100015 85.2192871,37.1449991 84.999286,37.315 C84.7792849,37.4850008 84.5192875,37.6099996 84.219286,37.69 C83.9192845,37.7700004 83.6092876,37.8199999 83.289286,37.84 C82.9692844,37.8600001 82.6892872,37.87 82.449286,37.87 C82.2892852,37.87 82.1792863,37.8250004 82.119286,37.735 C82.0592857,37.6449995 82.024286,37.5350007 82.014286,37.405 C82.0042859,37.2749993 81.999286,37.1400007 81.999286,37 C81.999286,36.8599993 81.9892861,36.7400005 81.969286,36.64 C81.9492859,36.5999998 81.9192862,36.5450003 81.879286,36.475 C81.8392858,36.4049996 81.819286,36.3500002 81.819286,36.31 C81.7992859,36.1899994 81.8192857,36.0800005 81.879286,35.98 C81.9392863,35.8799995 81.969286,35.7800005 81.969286,35.68 L81.969286,32.11 C81.969286,31.909999 81.869287,31.81 81.669286,31.81 L77.679286,31.81 C77.479285,31.81 77.379286,31.909999 77.379286,32.11 L77.379286,35.71 C77.379286,35.9300011 77.5842839,36.045 77.994286,36.055 C78.404288,36.065 78.8542835,36.0550001 79.344286,36.025 C79.8342884,35.9949998 80.2842839,35.98 80.694286,35.98 C81.104288,35.98 81.309286,36.0699991 81.309286,36.25 C81.2492857,36.2900002 81.0542876,36.315 80.724286,36.325 C80.3942843,36.335 80.024288,36.34 79.614286,36.34 C79.2042839,36.34 78.8142878,36.335 78.444286,36.325 C78.0742841,36.315 77.8292866,36.31 77.709286,36.31 C77.6092855,36.31 77.5142864,36.3849992 77.424286,36.535 C77.3342855,36.6850008 77.2342865,36.859999 77.124286,37.06 C77.0142854,37.260001 76.8992866,37.4499991 76.779286,37.63 C76.6592854,37.8100009 76.5292867,37.9399996 76.389286,38.02 C76.1092846,38.1600007 75.7592881,38.2599997 75.339286,38.32 C74.9192839,38.3800003 74.5592875,38.41 74.259286,38.41 C74.1592855,38.41 74.0942861,38.3900002 74.064286,38.35 C74.0342858,38.3099998 73.9992862,38.2400005 73.959286,38.14 C73.8992857,37.939999 73.864286,37.6750016 73.854286,37.345 C73.8442859,37.0149983 73.839286,36.6700018 73.839286,36.31 C73.839286,35.9499982 73.8442859,35.6000017 73.854286,35.26 C73.864286,34.9199983 73.869286,34.6300012 73.869286,34.39 C73.8092857,32.9499928 73.779286,31.5100072 73.779286,30.07 C73.779286,29.9099992 73.8492853,29.83 73.989286,29.83 C74.1092866,29.83 74.2992847,29.8999993 74.559286,30.04 C74.8192873,30.1800007 75.1092844,30.3399991 75.429286,30.52 C75.7492876,30.7000009 76.0792843,30.8599993 76.419286,31 C76.7592877,31.1400007 77.0792845,31.21 77.379286,31.21 L81.459286,31.21 L81.669286,31.12 Z M95.979286,21.52 C95.9992861,21.3999994 96.0792853,21.2200012 96.219286,20.98 C96.3592867,20.7399988 96.5142851,20.4950013 96.684286,20.245 C96.8542868,19.9949988 97.0242851,19.7500012 97.194286,19.51 C97.3642868,19.2699988 97.4892856,19.0700008 97.569286,18.91 C97.9092877,18.3299971 98.2092847,17.7250032 98.469286,17.095 C98.7292873,16.4649969 98.9392852,15.8300032 99.099286,15.19 C99.1792864,14.8699984 99.2492857,14.5450016 99.309286,14.215 C99.3692863,13.8849984 99.4492855,13.5700015 99.549286,13.27 C99.5892862,13.1899996 99.6242858,13.1250003 99.654286,13.075 C99.6842861,13.0249998 99.7492855,13 99.849286,13 C99.9892867,13 100.259284,13.0649994 100.659286,13.195 C101.059288,13.3250006 101.474284,13.4799991 101.904286,13.66 C102.334288,13.8400009 102.714284,14.029999 103.044286,14.23 C103.374288,14.430001 103.539286,14.5999993 103.539286,14.74 C103.539286,14.8400005 103.454287,14.9649993 103.284286,15.115 C103.114285,15.2650008 102.949287,15.4299991 102.789286,15.61 C102.629285,15.7900009 102.504286,15.9649992 102.414286,16.135 C102.324286,16.3050008 102.369285,16.4599993 102.549286,16.6 C102.669287,16.7000005 102.794285,16.7849996 102.924286,16.855 C103.054287,16.9250004 103.189285,16.9999996 103.329286,17.08 C103.589287,17.2400008 103.854285,17.4299989 104.124286,17.65 C104.394287,17.8700011 104.639285,18.1099987 104.859286,18.37 C105.079287,18.6300013 105.259285,18.9149985 105.399286,19.225 C105.539287,19.5350016 105.609286,19.8499984 105.609286,20.17 C105.609286,20.6700025 105.469287,21.0399988 105.189286,21.28 C104.909285,21.5200012 104.529288,21.64 104.049286,21.64 C103.849285,21.64 103.609287,21.6050004 103.329286,21.535 C103.049285,21.4649996 102.859286,21.3400009 102.759286,21.16 C102.739286,21.1399999 102.719286,21.0250011 102.699286,20.815 C102.679286,20.6049989 102.654286,20.3700013 102.624286,20.11 C102.594286,19.8499987 102.569286,19.6050012 102.549286,19.375 C102.529286,19.1449989 102.509286,18.9900004 102.489286,18.91 C102.469286,18.7699993 102.444286,18.6400006 102.414286,18.52 C102.384286,18.3999994 102.359286,18.2700007 102.339286,18.13 C102.319286,18.0099994 102.309286,17.8900006 102.309286,17.77 C102.309286,17.6499994 102.289286,17.5300006 102.249286,17.41 C102.189286,17.2499992 102.069287,17.1799999 101.889286,17.2 L101.679286,17.29 C101.359284,17.6100016 100.974288,18.0049977 100.524286,18.475 C100.074284,18.9450023 99.5992885,19.4049977 99.099286,19.855 C98.5992835,20.3050023 98.0892886,20.6999983 97.569286,21.04 C97.0492834,21.3800017 96.5592883,21.5799997 96.099286,21.64 L95.979286,21.52 Z M120.219286,29.26 C120.299286,29.3400004 120.489284,29.5049988 120.789286,29.755 C121.089287,30.0050012 121.399284,30.2649986 121.719286,30.535 C122.039288,30.8050014 122.329285,31.0549989 122.589286,31.285 C122.849287,31.5150011 122.979286,31.6499998 122.979286,31.69 C122.979286,31.7700004 122.944286,31.8449997 122.874286,31.915 C122.804286,31.9850003 122.729286,32.02 122.649286,32.02 L117.489286,32.02 C117.289285,32.02 117.189286,32.119999 117.189286,32.32 L117.189286,37.6 C117.189286,38.1800029 117.039287,38.6949977 116.739286,39.145 C116.439284,39.5950022 116.054288,39.9699985 115.584286,40.27 C115.114284,40.5700015 114.599289,40.7999992 114.039286,40.96 C113.479283,41.1200008 112.949288,41.2 112.449286,41.2 C112.349285,41.2 112.274286,41.1550005 112.224286,41.065 C112.174286,40.9749995 112.129286,40.8700006 112.089286,40.75 C112.049286,40.6299994 112.019286,40.5100006 111.999286,40.39 C111.979286,40.2699994 111.959286,40.1800003 111.939286,40.12 C111.779285,39.5999974 111.594287,39.1650018 111.384286,38.815 C111.174285,38.4649982 110.869288,38.1100018 110.469286,37.75 C110.409286,37.7099998 110.339286,37.6500004 110.259286,37.57 C110.179286,37.4899996 110.139286,37.4000005 110.139286,37.3 C110.139286,37.1999995 110.219285,37.145 110.379286,37.135 C110.539287,37.125 110.649286,37.12 110.709286,37.12 L112.809286,37.12 C112.969287,37.12 113.089286,37.020001 113.169286,36.82 C113.309287,35.7799948 113.379286,34.7400052 113.379286,33.7 L113.379286,29.89 C113.379286,29.5699984 113.359286,29.2500016 113.319286,28.93 C113.279286,28.6099984 113.204287,28.3250013 113.094286,28.075 C112.984285,27.8249988 112.829287,27.7 112.629286,27.7 L96.369286,27.7 C96.169285,27.7 96.069286,27.600001 96.069286,27.4 C96.069286,27.3399997 96.1092856,27.31 96.189286,27.31 L107.349286,27.31 C107.549287,27.31 107.649286,27.210001 107.649286,27.01 C107.649286,26.6299981 107.634286,26.1550028 107.604286,25.585 C107.574286,25.0149972 107.554286,24.435003 107.544286,23.845 C107.534286,23.2549971 107.539286,22.6900027 107.559286,22.15 C107.579286,21.6099973 107.639285,21.1700017 107.739286,20.83 C107.779286,20.7299995 107.849285,20.6400004 107.949286,20.56 C108.509289,20.159998 108.959284,19.6650029 109.299286,19.075 C109.639288,18.4849971 109.909285,17.8500034 110.109286,17.17 C110.309287,16.4899966 110.464285,15.8000035 110.574286,15.1 C110.684287,14.3999965 110.809285,13.7300032 110.949286,13.09 L111.099286,13 L114.099286,14.11 C114.319287,14.1900004 114.529285,14.2649996 114.729286,14.335 C114.929287,14.4050003 115.129285,14.4899995 115.329286,14.59 C115.409286,14.6300002 115.469286,14.6899996 115.509286,14.77 C115.449286,14.8500004 115.334287,14.9299996 115.164286,15.01 C114.994285,15.0900004 114.819287,15.1899994 114.639286,15.31 C114.459285,15.4300006 114.299287,15.5849991 114.159286,15.775 C114.019285,15.965001 113.949286,16.1999986 113.949286,16.48 C113.949286,16.5600004 113.964286,16.6349997 113.994286,16.705 C114.024286,16.7750004 114.089285,16.81 114.189286,16.81 L118.389286,16.81 C118.689287,16.81 118.934285,16.7000011 119.124286,16.48 C119.314287,16.2599989 119.484285,16.0150014 119.634286,15.745 C119.784287,15.4749986 119.934285,15.2150013 120.084286,14.965 C120.234287,14.7149988 120.399285,14.5600003 120.579286,14.5 C120.659286,14.5200001 120.804285,14.6099992 121.014286,14.77 C121.224287,14.9300008 121.454285,15.109999 121.704286,15.31 C121.954287,15.510001 122.189285,15.7049991 122.409286,15.895 C122.629287,16.085001 122.779286,16.2199996 122.859286,16.3 L122.994286,16.435 C123.064286,16.5050004 123.139286,16.5749997 123.219286,16.645 C123.299286,16.7150004 123.364286,16.7799997 123.414286,16.84 C123.464286,16.9000003 123.489286,16.9399999 123.489286,16.96 C123.469286,17.0000002 123.414286,17.0549997 123.324286,17.125 C123.234286,17.1950004 123.169286,17.23 123.129286,17.23 L117.249286,17.23 L117.069286,17.32 C117.009286,17.520001 117.079285,17.8049981 117.279286,18.175 C117.479287,18.5450019 117.739284,18.9449979 118.059286,19.375 C118.379288,19.8050021 118.744284,20.2449977 119.154286,20.695 C119.564288,21.1450023 119.939284,21.5649981 120.279286,21.955 C120.619288,22.345002 120.909285,22.6699987 121.149286,22.93 C121.389287,23.1900013 121.509286,23.3499997 121.509286,23.41 C121.509286,23.4700003 121.479286,23.5199998 121.419286,23.56 C121.359286,23.6000002 121.299286,23.62 121.239286,23.62 L112.479286,23.62 C112.419286,23.62 112.349286,23.5900003 112.269286,23.53 C112.189286,23.4699997 112.129286,23.4200002 112.089286,23.38 C112.129286,23.3599999 112.349284,23.345 112.749286,23.335 C113.149288,23.325 113.599283,23.32 114.099286,23.32 L116.379286,23.32 C116.439286,23.32 116.529285,23.2600006 116.649286,23.14 C116.769287,23.0199994 116.879285,22.8800008 116.979286,22.72 C117.079286,22.5599992 117.169286,22.4000008 117.249286,22.24 C117.329286,22.0799992 117.369286,21.9700003 117.369286,21.91 C117.369286,21.7699993 117.279287,21.6750003 117.099286,21.625 C116.919285,21.5749997 116.719287,21.5300002 116.499286,21.49 C116.279285,21.4499998 116.059287,21.4000003 115.839286,21.34 C115.619285,21.2799997 115.469286,21.1700008 115.389286,21.01 C115.269285,20.7699988 115.179286,20.4450021 115.119286,20.035 C115.059286,19.624998 114.984286,19.220002 114.894286,18.82 C114.804286,18.419998 114.659287,18.0750015 114.459286,17.785 C114.259285,17.4949986 113.969288,17.35 113.589286,17.35 L113.289286,17.35 C113.209286,17.35 113.109287,17.3699998 112.989286,17.41 L112.719286,17.62 C112.539285,17.7600007 112.339287,17.9149992 112.119286,18.085 C111.899285,18.2550009 111.694287,18.4149993 111.504286,18.565 C111.314285,18.7150007 111.189286,18.8099998 111.129286,18.85 C111.049286,18.9100003 110.914287,19.0099993 110.724286,19.15 C110.534285,19.2900007 110.344287,19.4399992 110.154286,19.6 C109.964285,19.7600008 109.799287,19.9199992 109.659286,20.08 C109.519285,20.2400008 109.449286,20.3599996 109.449286,20.44 C109.449286,20.6200009 109.569285,20.715 109.809286,20.725 C110.049287,20.7350001 110.319284,20.7300001 110.619286,20.71 C110.919287,20.6899999 111.189285,20.685 111.429286,20.695 C111.669287,20.7050001 111.789286,20.809999 111.789286,21.01 C111.789286,21.1500007 111.764286,21.3099991 111.714286,21.49 C111.664286,21.6700009 111.609286,21.8499991 111.549286,22.03 C111.489286,22.2100009 111.439286,22.3749992 111.399286,22.525 C111.359286,22.6750007 111.349286,22.7999995 111.369286,22.9 C111.389286,23.0000005 111.429286,23.0999995 111.489286,23.2 C111.549286,23.3000005 111.579286,23.4099994 111.579286,23.53 C111.579286,23.6500006 111.544286,23.7599995 111.474286,23.86 C111.404286,23.9600005 111.369286,24.0499996 111.369286,24.13 L111.369286,26.92 C111.369286,27.120001 111.469285,27.22 111.669286,27.22 L118.479286,27.22 C118.599287,27.22 118.749285,27.1050011 118.929286,26.875 C119.109287,26.6449989 119.299285,26.3950014 119.499286,26.125 C119.699287,25.8549987 119.894285,25.6050011 120.084286,25.375 C120.274287,25.1449989 120.439285,25.03 120.579286,25.03 C120.779287,25.03 121.009285,25.1199991 121.269286,25.3 C121.529287,25.4800009 121.784285,25.6899988 122.034286,25.93 C122.284287,26.1700012 122.514285,26.4199987 122.724286,26.68 C122.934287,26.9400013 123.109285,27.1399993 123.249286,27.28 C123.329286,27.3800005 123.344286,27.4749995 123.294286,27.565 C123.244286,27.6550004 123.149287,27.7 123.009286,27.7 L114.129286,27.7 C114.049286,27.7 113.979286,27.7349996 113.919286,27.805 C113.859286,27.8750004 113.829286,27.9499996 113.829286,28.03 C113.829286,28.230001 113.994284,28.3699996 114.324286,28.45 C114.654288,28.5300004 115.039284,28.5849998 115.479286,28.615 C115.919288,28.6450001 116.339284,28.66 116.739286,28.66 C117.139288,28.66 117.419285,28.6799998 117.579286,28.72 C117.719287,28.7600002 117.789286,28.8199996 117.789286,28.9 C117.789286,28.9800004 117.744286,29.0599996 117.654286,29.14 C117.564286,29.2200004 117.499286,29.2799998 117.459286,29.32 L117.369286,29.53 L117.369286,31.3 L117.459286,31.48 C117.539286,31.5200002 117.609286,31.5499999 117.669286,31.57 C117.729286,31.5900001 117.799286,31.6099999 117.879286,31.63 C118.079287,31.6900003 118.264285,31.6050011 118.434286,31.375 C118.604287,31.1449989 118.774285,30.8800015 118.944286,30.58 C119.114287,30.2799985 119.284285,29.9900014 119.454286,29.71 C119.624287,29.4299986 119.809285,29.2600003 120.009286,29.2 L120.219286,29.26 Z M109.089286,16.72 C109.109286,16.7600002 109.129286,16.7949998 109.149286,16.825 C109.169286,16.8550001 109.179286,16.8899998 109.179286,16.93 C109.219286,17.1500011 109.154287,17.265 108.984286,17.275 C108.814285,17.2850001 108.669287,17.29 108.549286,17.29 L107.814286,17.29 C107.524285,17.29 107.224288,17.2850001 106.914286,17.275 C106.604284,17.265 106.309287,17.2500001 106.029286,17.23 C105.749285,17.2099999 105.519287,17.1700003 105.339286,17.11 C105.299286,17.0899999 105.239286,17.0650001 105.159286,17.035 C105.079286,17.0049999 105.039286,16.9600003 105.039286,16.9 C105.039286,16.8399997 105.109285,16.7000011 105.249286,16.48 C105.389287,16.2599989 105.544285,16.0200013 105.714286,15.76 C105.884287,15.4999987 106.054285,15.2550012 106.224286,15.025 C106.394287,14.7949989 106.509286,14.6400004 106.569286,14.56 C106.649286,14.5199998 106.709286,14.5 106.749286,14.5 C106.809286,14.5 106.949285,14.599999 107.169286,14.8 C107.389287,15.000001 107.629285,15.2299987 107.889286,15.49 C108.149287,15.7500013 108.394285,15.9999988 108.624286,16.24 C108.854287,16.4800012 109.009286,16.6399996 109.089286,16.72 Z M98.889286,23.41 L99.984286,23.41 C100.474288,23.41 101.019283,23.4050001 101.619286,23.395 C102.219289,23.3849999 102.839283,23.38 103.479286,23.38 C104.119289,23.38 104.699283,23.3849999 105.219286,23.395 C105.739289,23.4050001 106.169284,23.41 106.509286,23.41 C106.849288,23.41 107.029286,23.4199999 107.049286,23.44 C107.049286,23.4800002 106.999286,23.5199998 106.899286,23.56 C106.799285,23.6000002 106.729286,23.62 106.689286,23.62 L98.889286,23.62 L98.769286,23.5 L98.889286,23.41 Z M96.909286,31.81 L112.629286,31.81 C112.669286,31.81 112.699286,31.8199999 112.719286,31.84 L112.659286,31.93 L112.449286,32.02 L96.909286,32.02 L96.789286,31.9 L96.909286,31.81 Z M105.549286,38.44 C105.249284,38.44 104.914288,38.2200022 104.544286,37.78 C104.174284,37.3399978 103.819288,36.8300029 103.479286,36.25 C103.139284,35.6699971 102.844287,35.0950029 102.594286,34.525 C102.344285,33.9549971 102.179286,33.5400013 102.099286,33.28 C102.039286,33.0999991 102.099285,33.01 102.279286,33.01 C102.779288,33.01 103.339283,33.0749993 103.959286,33.205 C104.579289,33.3350006 105.159283,33.5399986 105.699286,33.82 C106.239289,34.1000014 106.689284,34.4649977 107.049286,34.915 C107.409288,35.3650023 107.589286,35.8999969 107.589286,36.52 C107.589286,37.120003 107.394288,37.5899983 107.004286,37.93 C106.614284,38.2700017 106.129289,38.44 105.549286,38.44 Z M145.569286,13.03 C145.609286,13.03 145.649286,13.0399999 145.689286,13.06 C146.349289,13.4000017 147.034282,13.7199985 147.744286,14.02 C148.45429,14.3200015 149.169282,14.569999 149.889286,14.77 L149.979286,14.89 L149.889286,15.04 C149.769285,15.1000003 149.529288,15.2449989 149.169286,15.475 C148.809284,15.7050011 148.404288,15.9799984 147.954286,16.3 C147.504284,16.6200016 147.029288,16.9649982 146.529286,17.335 C146.029283,17.7050018 145.574288,18.0499984 145.164286,18.37 C144.754284,18.6900016 144.414287,18.9699988 144.144286,19.21 C143.874285,19.4500012 143.739286,19.6099996 143.739286,19.69 C143.739286,19.7300002 143.769286,19.7599999 143.829286,19.78 C143.889286,19.8000001 143.939286,19.81 143.979286,19.81 L147.789286,19.81 C147.869286,19.81 148.024285,19.715001 148.254286,19.525 C148.484287,19.3349991 148.719285,19.1200012 148.959286,18.88 C149.199287,18.6399988 149.429285,18.4050012 149.649286,18.175 C149.869287,17.9449989 150.029285,17.7800005 150.129286,17.68 L150.279286,17.62 C150.379286,17.6600002 150.604284,17.8449984 150.954286,18.175 C151.304288,18.5050017 151.674284,18.8649981 152.064286,19.255 C152.454288,19.6450019 152.804284,20.0099983 153.114286,20.35 C153.424288,20.6900017 153.579286,20.8799998 153.579286,20.92 C153.579286,20.9800003 153.519287,21.0499996 153.399286,21.13 C153.279285,21.2100004 153.139287,21.2899996 152.979286,21.37 L152.529286,21.595 C152.389285,21.6650003 152.289286,21.7099999 152.229286,21.73 C151.929284,21.8900008 151.604288,22.0649991 151.254286,22.255 C150.904284,22.4450009 150.544288,22.6299991 150.174286,22.81 C149.804284,22.9900009 149.434288,23.1399994 149.064286,23.26 C148.694284,23.3800006 148.349288,23.44 148.029286,23.44 C147.769285,23.44 147.669286,23.2700017 147.729286,22.93 C147.789286,22.5899983 147.889285,22.220002 148.029286,21.82 C148.169287,21.419998 148.269286,21.0500017 148.329286,20.71 C148.389286,20.3699983 148.289287,20.2 148.029286,20.2 L130.509286,20.2 C130.409285,20.2 130.329286,20.2349996 130.269286,20.305 C130.209286,20.3750003 130.179286,20.4599995 130.179286,20.56 C130.179286,20.9800021 130.154286,21.4599973 130.104286,22 C130.054286,22.5400027 129.939287,23.0499976 129.759286,23.53 C129.579285,24.0100024 129.319288,24.4099984 128.979286,24.73 C128.639284,25.0500016 128.179289,25.21 127.599286,25.21 C127.079283,25.21 126.644288,25.0400017 126.294286,24.7 C125.944284,24.3599983 125.769286,23.9300026 125.769286,23.41 C125.769286,23.2299991 125.779286,23.0900005 125.799286,22.99 C125.819286,22.8899995 125.879285,22.7600008 125.979286,22.6 C126.259287,22.1799979 126.609284,21.8150016 127.029286,21.505 C127.449288,21.1949984 127.809284,20.840002 128.109286,20.44 C128.369287,20.0999983 128.559285,19.7400019 128.679286,19.36 C128.799287,18.9799981 128.939285,18.6000019 129.099286,18.22 L129.174286,18.07 C129.204286,18.0099997 129.239286,17.98 129.279286,17.98 C129.379286,17.98 129.454286,18.074999 129.504286,18.265 C129.554286,18.455001 129.609286,18.6649988 129.669286,18.895 C129.729286,19.1250012 129.794286,19.3349991 129.864286,19.525 C129.934286,19.715001 130.039285,19.81 130.179286,19.81 L142.569286,19.81 C142.789287,19.81 142.994285,19.6700014 143.184286,19.39 C143.374287,19.1099986 143.554285,18.7500022 143.724286,18.31 C143.894287,17.8699978 144.049285,17.3850027 144.189286,16.855 C144.329287,16.3249974 144.469285,15.8100025 144.609286,15.31 C144.749287,14.8099975 144.889285,14.360002 145.029286,13.96 C145.169287,13.559998 145.309285,13.2700009 145.449286,13.09 L145.569286,13.03 Z M137.319286,13.48 C137.319286,13.279999 137.419285,13.18 137.619286,13.18 C138.059288,13.18 138.534283,13.284999 139.044286,13.495 C139.554289,13.7050011 140.029284,13.9799983 140.469286,14.32 C140.909288,14.6600017 141.274285,15.0499978 141.564286,15.49 C141.854287,15.9300022 141.999286,16.3899976 141.999286,16.87 C141.999286,17.5500034 141.819288,18.0449985 141.459286,18.355 C141.099284,18.6650016 140.589289,18.82 139.929286,18.82 C139.429283,18.82 139.014288,18.6100021 138.684286,18.19 C138.354284,17.7699979 138.089287,17.2750029 137.889286,16.705 C137.689285,16.1349972 137.544286,15.5450031 137.454286,14.935 C137.364286,14.324997 137.319286,13.8400018 137.319286,13.48 Z M130.689286,13.57 C131.189288,13.57 131.734283,13.6499992 132.324286,13.81 C132.914289,13.9700008 133.469283,14.1999985 133.989286,14.5 C134.509289,14.8000015 134.944284,15.1749977 135.294286,15.625 C135.644288,16.0750023 135.819286,16.5899971 135.819286,17.17 C135.819286,17.7500029 135.634288,18.2049984 135.264286,18.535 C134.894284,18.8650016 134.429289,19.03 133.869286,19.03 C133.369283,19.03 132.939288,18.830002 132.579286,18.43 C132.379285,18.229999 132.184287,17.930002 131.994286,17.53 C131.804285,17.129998 131.624287,16.7100022 131.454286,16.27 C131.284285,15.8299978 131.129287,15.3950021 130.989286,14.965 C130.849285,14.5349978 130.719287,14.1700015 130.599286,13.87 C130.579286,13.8299998 130.569286,13.7700004 130.569286,13.69 L130.689286,13.57 Z M143.079286,23.83 C143.139286,23.7699997 143.279285,23.635001 143.499286,23.425 C143.719287,23.2149989 143.954285,22.9900012 144.204286,22.75 C144.454287,22.5099988 144.679285,22.2950009 144.879286,22.105 C145.079287,21.9149991 145.189286,21.82 145.209286,21.82 L145.389286,21.82 C145.509287,21.9200005 145.744284,22.1249985 146.094286,22.435 C146.444288,22.7450016 146.809284,23.0799982 147.189286,23.44 C147.569288,23.8000018 147.909284,24.1349985 148.209286,24.445 C148.509287,24.7550015 148.679286,24.9499996 148.719286,25.03 L148.689286,25.12 C148.449285,25.3400011 148.044289,25.5149994 147.474286,25.645 C146.904283,25.7750006 146.299289,25.9199992 145.659286,26.08 C145.019283,26.2400008 144.409289,26.4349988 143.829286,26.665 C143.249283,26.8950012 142.829287,27.209998 142.569286,27.61 C142.509286,27.7100005 142.474286,27.8099995 142.464286,27.91 C142.454286,28.0100005 142.429286,28.1099995 142.389286,28.21 C142.309286,28.3700008 142.199287,28.5099994 142.059286,28.63 C141.919285,28.7500006 141.829286,28.8999991 141.789286,29.08 C141.689285,29.4600019 141.659286,29.8649978 141.699286,30.295 C141.739286,30.7250022 141.759286,31.139998 141.759286,31.54 C141.759286,32.4000043 141.734286,33.2499958 141.684286,34.09 C141.634286,34.9300042 141.609286,35.7799957 141.609286,36.64 C141.609286,36.8600011 141.614286,37.0899988 141.624286,37.33 C141.634286,37.5700012 141.619286,37.7999989 141.579286,38.02 C141.479285,38.5600027 141.239288,39.029998 140.859286,39.43 C140.479284,39.830002 140.034289,40.1649987 139.524286,40.435 C139.014283,40.7050013 138.474289,40.9049993 137.904286,41.035 C137.334283,41.1650006 136.809288,41.23 136.329286,41.23 C136.189285,41.23 136.084286,41.1900004 136.014286,41.11 C135.944286,41.0299996 135.894286,40.9300006 135.864286,40.81 C135.834286,40.6899994 135.814286,40.5600007 135.804286,40.42 C135.794286,40.2799993 135.779286,40.1600005 135.759286,40.06 C135.639285,39.4799971 135.454287,39.0000019 135.204286,38.62 C134.954285,38.2399981 134.599288,37.8800017 134.139286,37.54 C134.079286,37.4999998 133.974287,37.4200006 133.824286,37.3 C133.674285,37.1799994 133.599286,37.0800004 133.599286,37 C133.599286,36.8999995 133.709285,36.845 133.929286,36.835 C134.149287,36.8249999 134.289286,36.82 134.349286,36.82 L136.869286,36.82 C136.949286,36.82 137.029286,36.7800004 137.109286,36.7 C137.189286,36.6199996 137.249286,36.5500003 137.289286,36.49 C137.349286,36.4099996 137.399286,36.1750019 137.439286,35.785 C137.479286,35.394998 137.509286,34.9200028 137.529286,34.36 C137.549286,33.7999972 137.564286,33.1950032 137.574286,32.545 C137.584286,31.8949967 137.594286,31.275003 137.604286,30.685 C137.614286,30.094997 137.619286,29.5650023 137.619286,29.095 L137.619286,28.12 C137.619286,27.919999 137.719285,27.82 137.919286,27.82 L140.589286,27.82 C140.689286,27.7399996 140.879285,27.5400016 141.159286,27.22 C141.439287,26.8999984 141.729284,26.5500019 142.029286,26.17 C142.329287,25.7899981 142.594285,25.4400016 142.824286,25.12 C143.054287,24.7999984 143.169286,24.6000004 143.169286,24.52 C143.169286,24.4599997 143.159286,24.3950004 143.139286,24.325 C143.119286,24.2549996 143.069286,24.22 142.989286,24.22 L131.529286,24.22 C131.429285,24.22 131.379286,24.1700005 131.379286,24.07 C131.379286,23.9699995 131.429285,23.92 131.529286,23.92 L142.869286,23.92 L143.079286,23.83 Z M142.749286,31.21 C142.609285,31.21 142.514286,31.1600005 142.464286,31.06 C142.414286,30.9599995 142.449285,30.91 142.569286,30.91 L147.219286,30.91 C147.339287,30.91 147.519285,30.7700014 147.759286,30.49 C147.999287,30.2099986 148.249285,29.8950017 148.509286,29.545 C148.769287,29.1949982 149.024285,28.8650015 149.274286,28.555 C149.524287,28.2449984 149.729285,28.0600003 149.889286,28 C149.969286,28.0200001 150.169284,28.1549987 150.489286,28.405 C150.809288,28.6550012 151.159284,28.9399984 151.539286,29.26 C151.919288,29.5800016 152.279284,29.8849985 152.619286,30.175 C152.959288,30.4650014 153.189285,30.6599995 153.309286,30.76 L153.369286,30.91 C153.369286,30.9900004 153.339286,31.0599997 153.279286,31.12 L153.069286,31.21 L142.749286,31.21 Z M126.309286,31 L136.839286,31 C136.879286,31 136.909286,31.0099999 136.929286,31.03 L136.869286,31.12 L136.659286,31.21 L126.309286,31.21 L126.189286,31.09 L126.309286,31 Z M164.139286,25.12 C164.039285,25.0399996 163.939286,25.0249997 163.839286,25.075 C163.739285,25.1250002 163.689286,25.2199993 163.689286,25.36 L163.689286,40 C163.689286,40.2200011 163.539287,40.3999993 163.239286,40.54 C162.939284,40.6800007 162.594288,40.7899996 162.204286,40.87 C161.814284,40.9500004 161.434288,41.0099998 161.064286,41.05 C160.694284,41.0900002 160.429287,41.11 160.269286,41.11 C160.069285,41.11 159.969286,41.010001 159.969286,40.81 L159.969286,29.56 C159.969286,29.4799996 159.929286,29.4200002 159.849286,29.38 C159.689285,29.38 159.499287,29.5049987 159.279286,29.755 C159.059285,30.0050012 158.829287,30.2899984 158.589286,30.61 C158.349285,30.9300016 158.124287,31.2449985 157.914286,31.555 C157.704285,31.8650015 157.529287,32.0799994 157.389286,32.2 C157.129285,32.4400012 156.864287,32.6649989 156.594286,32.875 C156.324285,33.085001 156.069287,33.3099988 155.829286,33.55 L155.679286,33.61 L155.619286,33.52 C156.099288,32.4999949 156.509284,31.4700052 156.849286,30.43 C157.189288,29.3899948 157.489285,28.3300054 157.749286,27.25 C157.849286,26.7899977 157.949285,26.2850027 158.049286,25.735 C158.149286,25.1849973 158.259285,24.6350027 158.379286,24.085 C158.499287,23.5349972 158.634285,22.9950026 158.784286,22.465 C158.934287,21.9349973 159.119285,21.470002 159.339286,21.07 C159.399286,20.9299993 159.489285,20.8100005 159.609286,20.71 C159.729287,20.6099995 159.789286,20.4800008 159.789286,20.32 L159.789286,13.48 C159.789286,13.279999 159.889285,13.18 160.089286,13.18 C160.789289,13.18 161.484283,13.2149996 162.174286,13.285 C162.864289,13.3550004 163.559282,13.4499994 164.259286,13.57 L164.409286,13.69 C164.389286,13.890001 164.279287,14.0499994 164.079286,14.17 C163.879285,14.2900006 163.779286,14.4299992 163.779286,14.59 L163.779286,19.66 C163.779286,19.7000002 163.794286,19.7549997 163.824286,19.825 C163.854286,19.8950004 163.899286,19.93 163.959286,19.93 C164.079287,19.93 164.199285,19.8650006 164.319286,19.735 C164.439287,19.6049993 164.549285,19.4500009 164.649286,19.27 C164.749286,19.0899991 164.844286,18.9150009 164.934286,18.745 C165.024286,18.5749992 165.109286,18.4500004 165.189286,18.37 L165.339286,18.31 C165.519287,18.31 165.674285,18.3999991 165.804286,18.58 C165.934287,18.7600009 166.129285,18.85 166.389286,18.85 C166.489286,18.85 166.564286,18.8250003 166.614286,18.775 C166.664286,18.7249997 166.709286,18.6750003 166.749286,18.625 L166.869286,18.475 C166.909286,18.4249998 166.979285,18.4 167.079286,18.4 L172.269286,18.4 C172.469287,18.4 172.569286,18.300001 172.569286,18.1 L172.569286,13.69 C172.569286,13.489999 172.669285,13.39 172.869286,13.39 C173.509289,13.39 174.164283,13.3999999 174.834286,13.42 C175.504289,13.4400001 176.149283,13.5399991 176.769286,13.72 C176.809286,13.7400001 176.859286,13.7599999 176.919286,13.78 C176.979286,13.8000001 177.009286,13.8399997 177.009286,13.9 C177.009286,13.9800004 176.964286,14.0599996 176.874286,14.14 C176.784286,14.2200004 176.719286,14.2799998 176.679286,14.32 L176.589286,14.53 L176.589286,18.22 C176.589286,18.3200005 176.644285,18.3799999 176.754286,18.4 C176.864287,18.4200001 176.959286,18.43 177.039286,18.43 C177.659289,18.43 178.169284,18.2900014 178.569286,18.01 C178.969288,17.7299986 179.299285,17.4200017 179.559286,17.08 C179.819287,16.7399983 180.029285,16.4300014 180.189286,16.15 C180.349287,15.8699986 180.499285,15.73 180.639286,15.73 C180.699286,15.73 180.899284,15.8649987 181.239286,16.135 C181.579288,16.4050014 181.939284,16.7099983 182.319286,17.05 C182.699288,17.3900017 183.039284,17.7099985 183.339286,18.01 C183.639287,18.3100015 183.789286,18.4899997 183.789286,18.55 C183.789286,18.6500005 183.739286,18.7 183.639286,18.7 L170.949286,18.7 C170.829285,18.7 170.734286,18.7499995 170.664286,18.85 C170.594286,18.9500005 170.519286,19 170.439286,19 C170.279285,19 170.139287,18.9650004 170.019286,18.895 C169.899285,18.8249996 169.759287,18.79 169.599286,18.79 C169.479285,18.79 169.259288,18.7800001 168.939286,18.76 C168.619284,18.7399999 168.294288,18.7349999 167.964286,18.745 C167.634284,18.7550001 167.344287,18.7949997 167.094286,18.865 C166.844285,18.9350004 166.719286,19.0599991 166.719286,19.24 C166.719286,19.3200004 166.774285,19.4299993 166.884286,19.57 C166.994287,19.7100007 167.119285,19.8549993 167.259286,20.005 C167.399287,20.1550008 167.534285,20.2949994 167.664286,20.425 C167.794287,20.5550006 167.879286,20.6499997 167.919286,20.71 C167.959286,20.7500002 167.979286,20.8249994 167.979286,20.935 C167.979286,21.0450005 167.929286,21.1 167.829286,21.1 C167.229283,21.1 166.634289,21.095 166.044286,21.085 C165.454283,21.0749999 164.859289,21.0799999 164.259286,21.1 L164.004286,21.1 C163.854285,21.1 163.769286,21.1099999 163.749286,21.13 C163.629285,21.2900008 163.569286,21.4299994 163.569286,21.55 C163.569286,21.9300019 163.594286,22.3749974 163.644286,22.885 C163.694286,23.3950026 163.739286,23.849998 163.779286,24.25 C163.779286,24.3300004 163.819286,24.4099996 163.899286,24.49 C163.939286,24.5300002 164.134284,24.6299992 164.484286,24.79 C164.834288,24.9500008 165.219284,25.1199991 165.639286,25.3 C166.059288,25.4800009 166.444284,25.6349993 166.794286,25.765 C167.144288,25.8950007 167.339286,25.96 167.379286,25.96 C167.539287,25.9399999 167.679285,25.8700006 167.799286,25.75 C167.899286,25.6499995 168.024285,25.4600014 168.174286,25.18 C168.324287,24.8999986 168.479285,24.5750018 168.639286,24.205 C168.799287,23.8349981 168.964285,23.4350021 169.134286,23.005 C169.304287,22.5749978 169.464285,22.160002 169.614286,21.76 C169.764287,21.359998 169.899285,20.9950016 170.019286,20.665 C170.139287,20.3349984 170.229286,20.0800009 170.289286,19.9 C170.309286,19.8399997 170.334286,19.7800003 170.364286,19.72 C170.394286,19.6599997 170.449286,19.63 170.529286,19.63 C170.649287,19.6900003 170.899284,19.824999 171.279286,20.035 C171.659288,20.2450011 172.059284,20.4699988 172.479286,20.71 C172.899288,20.9500012 173.279284,21.169999 173.619286,21.37 C173.959288,21.570001 174.149286,21.6899998 174.189286,21.73 C174.249286,21.7900003 174.279286,21.8499997 174.279286,21.91 C174.279286,21.9900004 174.149287,22.1399989 173.889286,22.36 C173.629285,22.5800011 173.299288,22.8399985 172.899286,23.14 C172.499284,23.4400015 172.059288,23.7599983 171.579286,24.1 C171.099284,24.4400017 170.634288,24.7649984 170.184286,25.075 C169.734284,25.3850015 169.334288,25.6549988 168.984286,25.885 C168.634284,26.1150011 168.399287,26.2699996 168.279286,26.35 C168.179285,26.4500005 168.129286,26.5749992 168.129286,26.725 C168.129286,26.8750007 168.149286,27.0299992 168.189286,27.19 C168.229286,27.3500008 168.274286,27.5149991 168.324286,27.685 C168.374286,27.8550008 168.399286,27.9999994 168.399286,28.12 C168.399286,28.6200025 168.224288,29.0299984 167.874286,29.35 C167.524284,29.6700016 167.109288,29.83 166.629286,29.83 C166.089283,29.83 165.719287,29.6550017 165.519286,29.305 C165.319285,28.9549982 165.174286,28.5300025 165.084286,28.03 C164.994286,27.5299975 164.899286,27.0100027 164.799286,26.47 C164.699285,25.9299973 164.479288,25.4800018 164.139286,25.12 Z M181.479286,26.02 C181.159284,26.02 180.764288,25.7950022 180.294286,25.345 C179.824284,24.8949977 179.359288,24.370003 178.899286,23.77 C178.439284,23.169997 178.009288,22.5750029 177.609286,21.985 C177.209284,21.394997 176.919287,20.9600014 176.739286,20.68 C176.659286,20.5599994 176.619286,20.4700003 176.619286,20.41 C176.619286,20.3099995 176.659286,20.2500001 176.739286,20.23 C176.819286,20.2099999 176.899286,20.2 176.979286,20.2 C177.579289,20.2 178.239282,20.2749992 178.959286,20.425 C179.67929,20.5750007 180.354283,20.8149983 180.984286,21.145 C181.614289,21.4750016 182.144284,21.8949974 182.574286,22.405 C183.004288,22.9150025 183.219286,23.5399963 183.219286,24.28 C183.219286,24.8200027 183.064288,25.2449984 182.754286,25.555 C182.444284,25.8650015 182.019289,26.02 181.479286,26.02 Z M156.309286,20.8 C156.409286,20.8 156.594285,20.795 156.864286,20.785 C157.134287,20.7749999 157.414285,20.77 157.704286,20.77 C157.994287,20.77 158.259285,20.7749999 158.499286,20.785 C158.739287,20.795 158.879286,20.8099999 158.919286,20.83 L158.859286,20.92 L158.649286,21.01 L156.309286,21.01 L156.189286,20.89 L156.309286,20.8 Z M183.909286,36.64 C183.569284,36.9600016 183.239288,37.2749984 182.919286,37.585 C182.599284,37.8950016 182.329287,38.249998 182.109286,38.65 C181.909285,38.9900017 181.759286,39.3399982 181.659286,39.7 C181.559285,40.0600018 181.429287,40.4099983 181.269286,40.75 C181.229286,40.8100003 181.194286,40.8699997 181.164286,40.93 C181.134286,40.9900003 181.079286,41.02 180.999286,41.02 C180.859285,41.02 180.554288,40.8700015 180.084286,40.57 C179.614284,40.2699985 179.109289,39.9300019 178.569286,39.55 C178.029283,39.1699981 177.519288,38.8000018 177.039286,38.44 C176.559284,38.0799982 176.249287,37.8300007 176.109286,37.69 C175.929285,37.5299992 175.724287,37.3200013 175.494286,37.06 C175.264285,36.7999987 175.059287,36.6100006 174.879286,36.49 C174.779285,36.4299997 174.679286,36.4 174.579286,36.4 C174.479285,36.4 174.379286,36.4199998 174.279286,36.46 C173.819284,36.9000022 173.319289,37.3349978 172.779286,37.765 C172.239283,38.1950021 171.674289,38.5949981 171.084286,38.965 C170.494283,39.3350018 169.889289,39.6549986 169.269286,39.925 C168.649283,40.1950013 168.019289,40.3899994 167.379286,40.51 C167.219285,40.5500002 166.999287,40.5899998 166.719286,40.63 C166.439285,40.6700002 166.219287,40.6500004 166.059286,40.57 L166.089286,40.51 C166.369287,40.309999 166.739284,40.0550016 167.199286,39.745 C167.659288,39.4349984 168.144283,39.1000018 168.654286,38.74 C169.164289,38.3799982 169.679283,37.995002 170.199286,37.585 C170.719289,37.174998 171.184284,36.7600021 171.594286,36.34 C172.004288,35.9199979 172.339285,35.5050021 172.599286,35.095 C172.859287,34.6849979 172.989286,34.2900019 172.989286,33.91 C172.989286,33.6499987 172.874287,33.2900023 172.644286,32.83 C172.414285,32.3699977 172.164287,31.8600028 171.894286,31.3 C171.624285,30.7399972 171.374287,30.165003 171.144286,29.575 C170.914285,28.9849971 170.799286,28.4400025 170.799286,27.94 C170.799286,27.7799992 170.829286,27.6600004 170.889286,27.58 C171.009287,27.6800005 171.204285,27.9649977 171.474286,28.435 C171.744287,28.9050024 172.034284,29.4099973 172.344286,29.95 C172.654288,30.4900027 172.974284,30.9799978 173.304286,31.42 C173.634288,31.8600022 173.919285,32.0899999 174.159286,32.11 C174.319287,32.1300001 174.494285,31.9250022 174.684286,31.495 C174.874287,31.0649979 175.049285,30.5750027 175.209286,30.025 C175.369287,29.4749973 175.509285,28.9400026 175.629286,28.42 C175.749287,27.8999974 175.829286,27.5500009 175.869286,27.37 C175.909286,27.1499989 175.949286,26.9250012 175.989286,26.695 C176.029286,26.4649989 176.079286,26.2400011 176.139286,26.02 C176.179286,25.8799993 176.259285,25.81 176.379286,25.81 C176.559287,25.81 176.839284,25.8649994 177.219286,25.975 C177.599288,26.0850006 177.994284,26.2149993 178.404286,26.365 C178.814288,26.5150007 179.209284,26.6649992 179.589286,26.815 C179.969288,26.9650008 180.259285,27.0799996 180.459286,27.16 C180.519286,27.2000002 180.569286,27.2299999 180.609286,27.25 C180.649286,27.2700001 180.669286,27.3199996 180.669286,27.4 C180.669286,27.4600003 180.579287,27.6499984 180.399286,27.97 C180.219285,28.2900016 179.989287,28.6699978 179.709286,29.11 C179.429285,29.5500022 179.134288,30.0249975 178.824286,30.535 C178.514284,31.0450025 178.219287,31.5299977 177.939286,31.99 C177.659285,32.4500023 177.429287,32.8549982 177.249286,33.205 C177.069285,33.5550018 176.979286,33.7899994 176.979286,33.91 C176.979286,34.110001 177.134284,34.2949991 177.444286,34.465 C177.754288,34.6350008 178.144284,34.7899993 178.614286,34.93 C179.084288,35.0700007 179.604283,35.2049994 180.174286,35.335 C180.744289,35.4650006 181.289283,35.5899994 181.809286,35.71 C182.329289,35.8300006 182.784284,35.9499994 183.174286,36.07 C183.564288,36.1900006 183.819285,36.3199993 183.939286,36.46 L183.909286,36.64 Z" id="N" fill="#000000"></path>
            <text id="" transform="translate(192.429973, 20.429973) rotate(25.000000) translate(-192.429973, -20.429973) " font-family="SoukouMincho" font-size="35" font-weight="normal" fill="#E70000">
                <tspan x="174.929973" y="33.9299734"></tspan>
            </text>
        </g>
    </g>
</svg>